{
  "accessors": [
    {
      "bufferView": 2,
      "componentType": 5126,
      "count": 52238,
      "max": [
        28.993099212646484,
        22.479299545288086,
        186.11669921875
      ],
      "min": [
        -35.188701629638672,
        -22.49169921875,
        -0.99459999799728394
      ],
      "type": "VEC3"
    },
    {
      "bufferView": 2,
      "byteOffset": 626856,
      "componentType": 5126,
      "count": 52238,
      "max": [
        0.99999499320983887,
        0.99998670816421509,
        0.99992263317108154
      ],
      "min": [
        -0.99996751546859741,
        -0.99997907876968384,
        -0.99992942810058594
      ],
      "type": "VEC3"
    },
    {
      "bufferView": 1,
      "componentType": 5126,
      "count": 52238,
      "max": [
        0.99550002813339233,
        0.99800002574920654
      ],
      "min": [
        0.00050000002374872565,
        0.00050008296966552734
      ],
      "type": "VEC2"
    },
    {
      "bufferView": 0,
      "componentType": 5125,
      "count": 299892,
      "max": [
        52237
      ],
      "min": [
        0
      ],
      "type": "SCALAR"
    }
  ],
  "asset": {
    "extras": {
      "author": "Renderpeople (https://sketchfab.com/renderpeople)",
      "license": "CC-BY-4.0 (http://creativecommons.org/licenses/by/4.0/)",
      "source": "https://sketchfab.com/3d-models/dennis-posed-004-male-standing-business-model-e211ffd52a96416e89c0cc415a388d61",
      "title": "Dennis Posed 004 - Male Standing Business Model"
    },
    "generator": "Sketchfab-8.49.0",
    "version": "2.0"
  },
  "bufferViews": [
    {
      "buffer": 0,
      "byteLength": 1199568,
      "byteOffset": 0,
      "name": "floatBufferViews",
      "target": 34963
    },
    {
      "buffer": 0,
      "byteLength": 417904,
      "byteOffset": 1199568,
      "byteStride": 8,
      "name": "floatBufferViews",
      "target": 34962
    },
    {
      "buffer": 0,
      "byteLength": 1253712,
      "byteOffset": 1617472,
      "byteStride": 12,
      "name": "floatBufferViews",
      "target": 34962
    }
  ],
  "buffers": [
    {
      "byteLength": 2871184,
      "uri": "scene.bin"
    }
  ],
  "images": [
    {
      "uri": "textures/rp_dennis_posed_004_100k_mat_baseColor.jpeg"
    }
  ],
  "materials": [
    {
      "doubleSided": true,
      "emissiveFactor": [
        0,
        0,
        0
      ],
      "name": "rp_dennis_posed_004_100k_mat",
      "pbrMetallicRoughness": {
        "baseColorFactor": [
          1,
          1,
          1,
          1
        ],
        "baseColorTexture": {
          "index": 0,
          "texCoord": 0
        },
        "metallicFactor": 0,
        "roughnessFactor": 0.59999999999999998
      }
    }
  ],
  "meshes": [
    {
      "name": "rp_dennis_posed_004_100k_rp_dennis_posed_004_100k_mat_0",
      "primitives": [
        {
          "attributes": {
            "NORMAL": 1,
            "POSITION": 0,
            "TEXCOORD_0": 2
          },
          "indices": 3,
          "material": 0,
          "mode": 4
        }
      ]
    }
  ],
  "nodes": [
    {
      "children": [
        1
      ],
      "name": "RootNode (gltf orientation matrix)",
      "rotation": [
        -0.70710678118654746,
        -0,
        -0,
        0.70710678118654757
      ]
    },
    {
      "children": [
        2
      ],
      "name": "RootNode (model correction matrix)"
    },
    {
      "children": [
        3
      ],
      "matrix": [
        1,
        0,
        0,
        0,
        0,
        0,
        1,
        0,
        0,
        -1,
        0,
        0,
        0,
        0,
        0,
        1
      ],
      "name": "72fb1f80030a40abadd9691463813831.fbx"
    },
    {
      "children": [
        4
      ],
      "name": "RootNode"
    },
    {
      "children": [
        5
      ],
      "matrix": [
        1,
        0,
        0,
        0,
        0,
        2.2204460492503131e-16,
        -1,
        0,
        0,
        1,
        2.2204460492503131e-16,
        0,
        0,
        0,
        0,
        1
      ],
      "name": "rp_dennis_posed_004_100k"
    },
    {
      "mesh": 0,
      "name": "rp_dennis_posed_004_100k_rp_dennis_posed_004_100k_mat_0"
    }
  ],
  "samplers": [
    {
      "magFilter": 9729,
      "minFilter": 9987,
      "wrapS": 10497,
      "wrapT": 10497
    }
  ],
  "scene": 0,
  "scenes": [
    {
      "name": "OSG_Scene",
      "nodes": [
        0
      ]
    }
  ],
  "textures": [
    {
      "sampler": 0,
      "source": 0
    }
  ]
}

